<svg xmlns="http://www.w3.org/2000/svg" width="206" height="44" viewBox="0 0 206 44" role="img" aria-labelledby="title desc">
    <title id="title">UstoHub monochrome</title>
    <desc id="desc">Monochrome UstoHub logo.</desc>
    <defs>
        <mask id="monoToolCutout">
            <rect width="44" height="44" fill="#fff"/>
            <path fill="#000" d="M27.4 17.5a5.8 5.8 0 0 1 6.8-6.8l-3.3 3.3 3.1 3.1 3.3-3.3a5.8 5.8 0 0 1-7.2 7.2L20 31.1a2.2 2.2 0 1 1-3.1-3.1l10.5-10.5Z"/>
        </mask>
    </defs>
    <g fill="#f5f2ea">
        <rect x="1.5" y="1.5" width="41" height="41" rx="8" fill="none" stroke="#f5f2ea"/>
        <path d="M8.8 18.4 22 8.2l13.2 10.2" fill="none" stroke="#f5f2ea" stroke-width="3.8" stroke-linecap="round" stroke-linejoin="round"/>
        <path d="M12.1 17.2v12.5C12.1 37.5 16 42 22 42s9.9-4.5 9.9-12.3V17.2h-7.2v12.4c0 3.3-.9 5-2.7 5s-2.7-1.7-2.7-5V17.2h-7.2Z" mask="url(#monoToolCutout)"/>
        <path d="m35 35.4 3.1 3.1-3.1 3.1-3.1-3.1 3.1-3.1Z"/>
        <path d="M58 12.2v12.5c0 4.7 2.5 7.4 6.9 7.4 4.3 0 6.8-2.7 6.8-7.4V12.2h4.3v12.7c0 7-4.4 10.9-11.1 10.9-6.8 0-11.2-3.9-11.2-10.9V12.2H58ZM83.5 31.1c1.5.9 3.4 1.5 5.4 1.5 1.8 0 2.9-.5 2.9-1.5s-.8-1.4-3.4-1.9c-3.7-.8-5.8-2.1-5.8-5 0-3.1 2.8-5.2 6.9-5.2 2.3 0 4.3.5 5.8 1.4l-1.3 3.1c-1.2-.7-2.8-1.1-4.4-1.1-1.8 0-2.7.6-2.7 1.5s.8 1.3 3.5 1.9c3.8.8 5.7 2.2 5.7 5 0 3.2-2.8 5.2-7.2 5.2-2.6 0-5-.7-6.7-1.8l1.3-3.1ZM105.2 15.4v4h4.7v3.3h-4.7v7.1c0 1.8.8 2.7 2.5 2.7.8 0 1.6-.1 2.2-.3v3.3c-.8.3-1.9.5-3.2.5-3.7 0-5.8-2-5.8-5.8v-7.5h-3v-3.3h3v-4h4.3ZM113 27.4c0-5 3.7-8.4 8.8-8.4s8.8 3.4 8.8 8.4-3.7 8.5-8.8 8.5-8.8-3.5-8.8-8.5Zm13.3 0c0-2.9-1.8-4.9-4.5-4.9s-4.5 2-4.5 4.9 1.8 4.9 4.5 4.9 4.5-2 4.5-4.9ZM140.1 12.2v9.1h10.7v-9.1h4.3v23.2h-4.3V25h-10.7v10.4h-4.3V12.2h4.3ZM176.1 19.4v16h-4l-.1-2.2c-1.2 1.7-3 2.6-5.3 2.6-4 0-6.5-2.6-6.5-7.2v-9.2h4.2v8.7c0 2.6 1.3 4 3.6 4 2.4 0 3.9-1.7 3.9-4.5v-8.2h4.2ZM184.6 12.2v9.3c1.2-1.6 3-2.5 5.2-2.5 4.4 0 7.5 3.4 7.5 8.4s-3.1 8.5-7.5 8.5c-2.4 0-4.2-.9-5.4-2.7l-.1 2.2h-3.9V12.2h4.2Zm8.4 15.2c0-2.9-1.8-4.9-4.3-4.9s-4.3 2-4.3 4.9 1.8 4.9 4.3 4.9 4.3-2 4.3-4.9Z"/>
    </g>
</svg>
