<svg xmlns="http://www.w3.org/2000/svg" width="64" height="64" viewBox="0 0 64 64" role="img" aria-labelledby="title desc">
    <title id="title">UstoHub mark</title>
    <desc id="desc">Compact UstoHub mark with a navy repair shield, orange roof, and white U.</desc>
    <rect x="3" y="3" width="58" height="58" rx="14" fill="#0B1F33"/>
    <path d="M15 27 32 14l17 13" fill="none" stroke="#F97316" stroke-width="5.5" stroke-linecap="round" stroke-linejoin="round"/>
    <path d="M20 25v16.5C20 51 24.8 56 32 56s12-5 12-14.5V25H34.8v16.1c0 4.4-.9 6.5-2.8 6.5s-2.8-2.1-2.8-6.5V25H20Z" fill="#FFFFFF"/>
    <path d="M42.5 18.5a7.4 7.4 0 0 1 8.6-8.6l-4.2 4.2 3 3 4.2-4.2a7.4 7.4 0 0 1-9.4 9.4L34.1 32.9a2.7 2.7 0 1 1-3.8-3.8l12.2-10.6Z" fill="#F97316"/>
</svg>
